#!OML:ASF I:\Actors\actors\Patient Classification 1\Patient 1\Session 1\Subject1.ASF
:FULLY-SPECIFIED
:DEGREES
2132
root 0.929152 17.6443 7.97094 17.2445 3.09495 -8.87357
lowerback 8.95983 -1.439 12.8442
upperback -3.00968 -0.37643 -0.367448
thorax -8.45844 -0.877637 -7.58867
lowerneck -5.57237 -14.8712 -16.0209
upperneck 8.42552 -21.1152 19.6991
head 7.3878 -9.91983 6.58537
rclavicle 9.34288e-015 -2.14687e-014
rhumerus 19.8463 39.2778 -3.14614
rradius 72.0754
rwrist 36.7452
rhand -32.9207 -35.0191
rfingers 7.12502
rthumb -6.13763 1375.09
lclavicle 9.34288e-015 -2.14687e-014
lhumerus -40.6093 -66.1144 88.7945
lradius 108.929
lwrist 19.5977
lhand -28.7122 -34.8031
lfingers 7.12502
lthumb -2.07372 -4.83343
rfemur -15.5995 26.2313 16.7472
rtibia 4.6159
rfoot -15.1131 -34.4712
rtoes 7.81817
lfemur -9.20792 -39.5107 -3.95695
ltibia -8.22143
lfoot -15.9474 49.3097
ltoes 17.2183
2133
root 0.92 17.6431 7.9798 17.2281 2.97868 -8.90616
lowerback 8.9262 -1.34548 13.0785
upperback -3.16125 -0.222803 -0.446904
thorax -8.57937 -0.833956 -7.83512
lowerneck -5.44025 -14.8568 -16.027
upperneck 8.49078 -21.1055 19.5973
head 7.37081 -9.92597 6.56472
rclavicle 1.98785e-015 -1.59028e-015
rhumerus 19.5942 39.0006 -4.64087
rradius 72.8526
rwrist 36.224
rhand -33.045 -35.6731
rfingers 7.12502
rthumb -6.25764 1374.44
lclavicle 1.98785e-015 -1.59028e-015
lhumerus -40.5333 -65.7864 88.7913
lradius 108.965
lwrist 19.6047
lhand -28.5884 -34.9237
lfingers 7.12502
lthumb -1.95421 -4.95294
rfemur -15.5746 26.2989 16.8344
rtibia 4.654
rfoot -15.1491 -34.4016
rtoes 7.83203
lfemur -9.04312 -39.5341 -3.9685
ltibia -8.28704
lfoot -15.9846 49.43
ltoes 17.1126
2134
root 0.906351 17.6471 7.99342 17.4042 2.70566 -8.45545
lowerback 8.68034 -1.17461 12.712
upperback -3.33656 -0.078197 -0.627811
thorax -8.58877 -0.759246 -7.84969
lowerneck -5.3784 -14.8402 -16.1545
upperneck 8.57171 -21.0922 19.5944
head 7.39694 -9.92433 6.58832
rclavicle 2.78299e-015 1.11319e-014
rhumerus 19.2762 38.7091 -6.1589
rradius 73.8178
rwrist 34.9788
rhand -33.0402 -36.6559
rfingers 7.12502
rthumb -6.25305 1373.46
lclavicle 2.78299e-015 1.11319e-014
lhumerus -40.4744 -65.481 88.9053
lradius 108.962
lwrist 19.6181
lhand -28.7212 -35.1526
lfingers 7.12502
lthumb -2.0824 -5.18305
rfemur -15.8099 26.4379 16.189
rtibia 4.7077
rfoot -15.2669 -34.4025
rtoes 8.10572
lfemur -9.05653 -39.5322 -4.45507
ltibia -8.3242
lfoot -16.3987 49.46
ltoes 17.6694
2135
root 0.892362 17.6518 8.00674 17.5647 2.42607 -7.95715
lowerback 8.45894 -1.01698 12.2682
upperback -3.50532 0.0460954 -0.782633
thorax -8.60848 -0.688928 -7.7868
lowerneck -5.53614 -14.8976 -16.4278
upperneck 8.77776 -21.1758 19.6655
head 7.54558 -9.9517 6.62119
rclavicle 1.45113e-014 6.36111e-015
rhumerus 18.971 38.3831 -7.74048
rradius 74.8679
rwrist 33.5319
rhand -33.0258 -37.4091
rfingers 7.12502
rthumb -6.23913 1372.7
lclavicle 1.45113e-014 6.36111e-015
lhumerus -40.5128 -65.1575 89.1882
lradius 108.903
lwrist 19.4007
lhand -29.105 -35.0834
lfingers 7.12502
lthumb -2.4531 -5.11774
rfemur -16.0058 26.5147 15.5067
rtibia 4.72153
rfoot -15.2946 -34.3868
rtoes 8.12328
lfemur -9.11543 -39.5473 -4.99479
ltibia -8.27834
lfoot -16.8525 49.5085
ltoes 18.2212
2136
root 0.886594 17.6465 8.01182 17.3865 2.50538 -8.26682
lowerback 8.57555 -0.996273 12.8696
upperback -3.59196 0.174427 -0.725866
thorax -8.75701 -0.672749 -8.08916
lowerneck -5.77904 -14.9967 -16.6222
upperneck 9.0544 -21.3006 19.5969
head 7.71282 -9.99534 6.583
rclavicle 4.57205e-015 -1.66979e-014
rhumerus 18.5745 38.0059 -9.41456
rradius 75.9428
rwrist 32.5626
rhand -32.906 -37.9032
rfingers 7.12502
rthumb -6.12351 1372.21
lclavicle 4.57205e-015 -1.66979e-014
lhumerus -40.4459 -64.8812 89.3818
lradius 108.799
lwrist 19.0802
lhand -29.3437 -34.9519
lfingers 7.12502
lthumb -2.68367 -4.989
rfemur -15.689 26.358 16.0859
rtibia 4.63775
rfoot -15.1969 -34.2072
rtoes 7.9432
lfemur -8.9275 -39.6987 -4.71217
ltibia -8.238
lfoot -16.4633 49.7667
ltoes 17.3942
2137
root 0.876465 17.6443 8.02123 17.3941 2.50465 -8.21356
lowerback 8.47065 -0.927255 12.9689
upperback -3.73971 0.272748 -0.740041
thorax -8.8394 -0.644181 -8.17681
lowerneck -5.93676 -15.0623 -16.6776
upperneck 9.29377 -21.366 19.3669
head 7.80506 -10.0213 6.49046
rclavicle -6.36111e-015 3.73715e-014
rhumerus 18.1967 37.6864 -11.0469
rradius 77.0448
rwrist 31.6937
rhand -32.5487 -38.3123
rfingers 7.12502
rthumb -5.77854 1371.79
lclavicle -6.36111e-015 3.73715e-014
lhumerus -40.3857 -64.617 89.579
lradius 108.718
lwrist 18.9971
lhand -29.1728 -35.0644
lfingers 7.12502
lthumb -2.51864 -5.09949
rfemur -15.6137 26.469 16.0625
rtibia 4.55649
rfoot -15.3417 -34.2675
rtoes 8.37061
lfemur -8.88953 -39.856 -4.74642
ltibia -8.2318
lfoot -16.4367 49.9352
ltoes 17.1698
2138
root 0.858321 17.6517 8.03938 17.712 2.21975 -7.37323
lowerback 8.0406 -0.741564 12.0501
upperback -3.98457 0.348256 -0.955261
thorax -8.8237 -0.572094 -7.89866
lowerneck -5.38789 -14.8802 -16.7743
upperneck 8.9698 -21.135 19.4526
head 7.58342 -9.9546 6.61804
rclavicle 2.78299e-015 7.15625e-015
rhumerus 17.8664 37.5121 -12.6042
rradius 78.2105
rwrist 30.5468
rhand -32.1505 -38.8643
rfingers 7.12502
rthumb -5.39408 1371.22
lclavicle 2.78299e-015 7.15625e-015
lhumerus -40.3942 -64.3639 89.8264
lradius 108.683
lwrist 19.1539
lhand -28.7211 -35.1786
lfingers 7.12502
lthumb -2.08232 -5.20901
rfemur -15.9828 26.8806 14.8223
rtibia 4.52384
rfoot -15.623 -34.6243
rtoes 9.04269
lfemur -9.08469 -39.9534 -5.57907
ltibia -8.23003
lfoot -17.3742 49.9169
ltoes 18.4215
2139
root 0.845015 17.6555 8.05324 17.8805 2.09095 -6.89315
lowerback 7.77148 -0.62889 11.5961
upperback -4.19595 0.413871 -1.06797
thorax -8.87763 -0.530347 -7.77169
lowerneck -5.24907 -14.8317 -16.9507
upperneck 8.99144 -21.0798 19.4863
head 7.57956 -9.93979 6.6744
rclavicle 8.15017e-015 3.97569e-015
rhumerus 17.6241 37.4426 -14.0172
rradius 79.5034
rwrist 29.1987
rhand -31.7859 -39.4462
rfingers 7.12502
rthumb -5.04205 1370.63
lclavicle 8.15017e-015 3.97569e-015
lhumerus -40.4806 -64.1185 90.1409
lradius 108.647
lwrist 19.2436
lhand -28.4672 -35.1764
lfingers 7.12502
lthumb -1.83713 -5.20455
rfemur -16.1398 27.0226 14.1629
rtibia 4.47653
rfoot -15.688 -34.801
rtoes 9.23071
lfemur -9.18948 -40.1049 -6.02986
ltibia -8.23522
lfoot -18.0232 49.9784
ltoes 19.1904
2140
root 0.83585 17.6544 8.06324 17.9122 2.14803 -6.8356
lowerback 7.63099 -0.59214 11.6521
upperback -4.358 0.463201 -1.04189
thorax -8.96581 -0.521618 -7.78146
lowerneck -5.37284 -14.8339 -17.0048
upperneck 9.26887 -21.0581 19.2099
head 7.65554 -9.92812 6.58579
rclavicle 5.36719e-015 -2.14687e-014
rhumerus 17.5412 37.377 -15.2607
rradius 80.8732
rwrist 27.5401
rhand -31.3005 -39.735
rfingers 7.12502
rthumb -4.57327 1370.33
lclavicle 5.36719e-015 -2.14687e-014
lhumerus -40.5687 -63.9121 90.4615
lradius 108.568
lwrist 19.2082
lhand -28.5526 -35.2395
lfingers 7.12502
lthumb -1.91962 -5.26839
rfemur -16.0921 26.9657 14.1499
rtibia 4.41418
rfoot -15.6651 -34.812
rtoes 9.21754
lfemur -9.22001 -40.3048 -6.00067
ltibia -8.24057
lfoot -18.0707 50.1407
ltoes 19.0546
2141
root 0.825865 17.6525 8.07338 17.9398 2.2047 -6.8276
lowerback 7.50414 -0.522094 11.78
upperback -4.50023 0.564768 -1.03353
thorax -9.02929 -0.490222 -7.85966
lowerneck -5.51046 -14.8479 -16.8888
upperneck 9.54082 -21.0399 18.797
head 7.69657 -9.91942 6.42731
rclavicle 5.66536e-015 -3.97569e-015
rhumerus 17.3685 37.2422 -16.5139
rradius 82.3461
rwrist 25.2712
rhand -30.9323 -39.7328
rfingers 7.12502
rthumb -4.21772 1370.33
lclavicle 5.66536e-015 -3.97569e-015
lhumerus -40.4556 -63.8576 90.5803
lradius 108.478
lwrist 19.1232
lhand -28.6116 -35.5101
lfingers 7.12502
lthumb -1.97658 -5.53951
rfemur -16.0676 26.9594 14.1871
rtibia 4.39475
rfoot -15.7354 -34.8258
rtoes 9.39831
lfemur -9.23472 -40.4865 -5.91623
ltibia -8.25069
lfoot -18.1025 50.2817
ltoes 18.8503
2142
root 0.81572 17.6509 8.08294 17.9487 2.27834 -6.80663
lowerback 7.42685 -0.424458 11.9036
upperback -4.65368 0.709251 -1.03834
thorax -9.12448 -0.441008 -7.95728
lowerneck -5.63887 -14.8511 -16.8519
upperneck 9.74594 -21.0431 18.6791
head 7.7662 -9.91144 6.37321
rclavicle 9.93923e-017 1.43125e-014
rhumerus 16.9041 37.0944 -17.8894
rradius 83.9927
rwrist 22.8902
rhand -30.5298 -39.5013
rfingers 7.12502
rthumb -3.82904 1370.55
lclavicle 9.93923e-017 1.43125e-014
lhumerus -40.3359 -63.8651 90.7224
lradius 108.413
lwrist 19.0171
lhand -28.5533 -35.7242
lfingers 7.12502
lthumb -1.92025 -5.75313
rfemur -16.0259 27.0053 14.2201
rtibia 4.40093
rfoot -15.8854 -34.8914
rtoes 9.69213
lfemur -9.21694 -40.6972 -5.86751
ltibia -8.26824
lfoot -18.2925 50.4136
ltoes 18.9314
